<svg width="311" height="105" viewBox="0 0 311 105" fill="none" xmlns="http://www.w3.org/2000/svg">
<path d="M54.226 102.842V74.2189H0V65.7326L49.4795 2.15729H70.7671V71.3422H90.3288V74.2189H70.7671V102.842H54.226ZM12.6575 71.3422H54.226V18.2669L12.6575 71.3422Z" fill="#F5F5F5"/>
<path d="M274.87 102.842V74.2189H220.644V65.7326L270.123 2.15729H291.411V71.3422H310.972V74.2189H291.411V102.842H274.87ZM233.301 71.3422H274.87V18.2669L233.301 71.3422Z" fill="#F5F5F5"/>
<path d="M154.479 105C145.945 105 138.274 102.795 131.465 98.3836C124.753 93.8767 119.527 87.6438 115.787 79.6849C112.048 71.6301 110.178 62.5685 110.178 52.5C110.178 42.3356 112.048 33.274 115.787 25.3151C119.527 17.3562 124.753 11.1712 131.465 6.76027C138.274 2.25342 145.945 0 154.479 0C163.013 0 170.637 2.25342 177.349 6.76027C184.061 11.1712 189.287 17.3562 193.027 25.3151C196.767 33.274 198.637 42.3356 198.637 52.5C198.637 62.5685 196.767 71.6301 193.027 79.6849C189.287 87.6438 184.061 93.8767 177.349 98.3836C170.637 102.795 163.013 105 154.479 105ZM154.479 89.8973C159.849 89.8973 164.596 88.363 168.719 85.2945C172.842 82.1301 176.054 77.7192 178.356 72.0616C180.657 66.4041 181.808 59.8836 181.808 52.5C181.808 45.1164 180.657 38.5959 178.356 32.9384C176.054 27.2808 172.842 22.9178 168.719 19.8493C164.596 16.6849 159.849 15.1027 154.479 15.1027C149.109 15.1027 144.363 16.6849 140.239 19.8493C136.116 22.9178 132.904 27.2808 130.602 32.9384C128.301 38.5959 127.15 45.1164 127.15 52.5C127.15 59.8836 128.301 66.4041 130.602 72.0616C132.904 77.7192 136.116 82.1301 140.239 85.2945C144.363 88.363 149.109 89.8973 154.479 89.8973Z" fill="#F5F5F5"/>
<path d="M133.623 79.1094C134.678 76.2327 140.7 69.1848 155.198 66.3081C169.697 63.4314 178.26 44.0136 180.37 35.3834" stroke="#F5F5F5" stroke-width="2" stroke-linecap="round"/>
<path d="M149.732 15.2462C150.5 31.164 156.061 54.3407 168.143 19.1298" stroke="#F5F5F5" stroke-width="2" stroke-linecap="round"/>
<path d="M153.76 15.1028C155.582 25.0274 160.261 39.3247 164.404 17.1165" stroke="#F5F5F5" stroke-width="2" stroke-linecap="round"/>
<path d="M140.527 19.274C145.082 26.3219 150.423 48.9041 133.623 78.8219" stroke="#F5F5F5" stroke-width="2" stroke-linecap="round"/>
<path d="M136.212 22.5819C140.287 33.3696 145.216 59.2888 131.178 73.7874" stroke="#F5F5F5" stroke-width="2" stroke-linecap="round"/>
<path d="M130.314 30.7809C133.191 39.6987 141.246 57.9658 127.294 65.1576" stroke="#F5F5F5" stroke-width="2" stroke-linecap="round"/>
<path d="M146.855 15.9655C147.047 40.1299 152.177 75.7148 170.588 21.2874" stroke="#F5F5F5" stroke-width="2" stroke-linecap="round"/>
<path d="M181.664 59.6918C172.555 63.3836 155.026 74.5644 157.788 89.7534" stroke="#F5F5F5" stroke-width="2" stroke-linecap="round"/>
<path d="M179.363 71.1987C172.315 71.2467 158.679 74.7946 163.972 88.0275" stroke="#F5F5F5" stroke-width="2" stroke-linecap="round"/>
<path d="M176.918 77.0959C172.938 76.6164 164.404 77.9589 167.856 86.0137" stroke="#F5F5F5" stroke-width="2" stroke-linecap="round"/>
<path d="M145.13 89.6097C140.815 83.2809 145.446 78.7357 156.493 70.3357C170.301 59.8357 178.068 60.4111 182.239 44.733" stroke="#F5F5F5" stroke-width="2" stroke-linecap="round"/>
</svg>
